<?xml version="1.0" encoding="UTF-8" standalone="no"?>
<!-- Created with Inkscape (http://www.inkscape.org/) -->

<svg
   width="208.52922mm"
   height="209.09366mm"
   viewBox="0 0 208.52922 209.09366"
   version="1.1"
   id="svg1"
   xml:space="preserve"
   inkscape:export-filename="tomato.svg"
   inkscape:export-xdpi="96"
   inkscape:export-ydpi="96"
   xmlns:inkscape="http://www.inkscape.org/namespaces/inkscape"
   xmlns:sodipodi="http://sodipodi.sourceforge.net/DTD/sodipodi-0.dtd"
   xmlns="http://www.w3.org/2000/svg"
   xmlns:svg="http://www.w3.org/2000/svg"><sodipodi:namedview
     id="namedview1"
     pagecolor="#ffffff"
     bordercolor="#999999"
     borderopacity="1"
     inkscape:showpageshadow="2"
     inkscape:pageopacity="0"
     inkscape:pagecheckerboard="0"
     inkscape:deskcolor="#d1d1d1"
     inkscape:document-units="mm"
     inkscape:zoom="1.1697766"
     inkscape:cx="396.22949"
     inkscape:cy="463.76375"
     inkscape:window-width="3840"
     inkscape:window-height="2071"
     inkscape:window-x="2391"
     inkscape:window-y="-9"
     inkscape:window-maximized="1"
     inkscape:current-layer="layer1" /><defs
     id="defs1" /><g
     inkscape:label="Layer 1"
     inkscape:groupmode="layer"
     id="layer1"
     transform="translate(-0.7353856,-43.953174)"><path
       style="fill:#ffffff;fill-opacity:1;stroke-width:4.96411"
       d="M 86.609075,251.93596 C 58.185091,248.38554 31.372241,235.09077 17.534207,217.68627 -5.9935564,188.09464 -4.6500412,142.70768 20.575332,114.95019 l 7.007237,-7.71059 c 3.679146,2.89998 8.719153,4.98957 11.036834,9.22648 0.165007,5.34748 4.695313,12.47827 9.844887,15.49615 8.526546,4.99687 13.00125,4.32349 35.157138,-5.29055 10.820856,-4.69549 20.439852,-8.53721 21.375482,-8.53721 0.93569,0 10.55464,3.84172 21.37549,8.53721 22.15594,9.61404 26.63064,10.28742 35.15718,5.29055 5.30306,-3.10783 9.79503,-10.36485 9.79503,-15.82448 1.96459,-3.68277 7.45966,-6.13558 10.91492,-9.08714 l 7.09311,7.80511 c 25.31356,27.85449 26.69224,73.19181 3.12699,102.83055 -20.33392,25.57462 -63.49552,39.54029 -105.850555,34.24969 z M 55.180809,120.01075 c -2.855155,-2.85516 -2.601117,-5.0889 1.344404,-11.82142 l 3.408354,-5.8159 h -8.399345 c -9.311678,0 -11.551557,-1.32005 -11.551557,-6.807672 0,-3.061562 1.054689,-4.189903 6.491625,-6.944982 9.245482,-4.685073 27.927887,-9.83424 39.110392,-10.779504 5.671342,-0.479533 9.561611,-1.403949 9.561611,-2.27232 0,-0.805277 -2.03558,-4.412543 -4.523441,-8.016186 -8.354639,-12.101445 -8.986271,-13.63873 -7.28815,-17.738336 2.176164,-5.253661 7.780043,-7.338734 12.777805,-4.754322 4.783263,2.473514 12.532333,13.537264 16.736533,23.895515 l 3.16834,7.806105 8.93737,1.005628 c 7.89442,1.545971 46.0937,7.223418 45.05645,17.910392 0,5.107072 -2.95786,6.695682 -12.4669,6.695682 h -7.38594 l 3.68654,6.55823 c 2.85863,5.08533 3.37217,7.05667 2.28652,8.77778 -3.2499,5.1521 -4.76783,4.88155 -26.88942,-4.79304 -11.89002,-5.1999 -22.80033,-9.45444 -24.24509,-9.45444 -1.44475,0 -12.201666,4.18787 -23.904246,9.30641 -11.702645,5.11849 -21.855824,9.30635 -22.562692,9.30635 -0.706874,0 -2.213996,-0.92878 -3.349163,-2.06397 z"
       id="path10"
       sodipodi:nodetypes="sssccsssssccssssscssssssssscssscsssssss" /></g></svg>
